<svg xmlns="http://www.w3.org/2000/svg" width="31.541" height="36.047" viewBox="0 0 31.541 36.047">
    <path fill="#4d4d4d" d="M28.162 4.506h-3.38V.845A.845.845 0 0 0 23.937 0h-2.816a.845.845 0 0 0-.845.845v3.661h-9.011V.845A.845.845 0 0 0 10.42 0H7.6a.845.845 0 0 0-.845.845v3.661H3.379A3.379 3.379 0 0 0 0 7.885v24.783a3.379 3.379 0 0 0 3.379 3.379h24.783a3.379 3.379 0 0 0 3.379-3.379V7.885a3.379 3.379 0 0 0-3.379-3.379zm-.422 28.162H3.8a.422.422 0 0 1-.422-.422V11.265h24.784v20.98a.422.422 0 0 1-.422.422zm-3.721-14.127L14 28.48a.845.845 0 0 1-1.195 0l-5.287-5.33a.845.845 0 0 1 0-1.195l1.6-1.587a.845.845 0 0 1 1.195 0l3.105 3.13 7.82-7.757a.845.845 0 0 1 1.195 0l1.587 1.6a.845.845 0 0 1 0 1.195z"/>
</svg>
