<svg xmlns="http://www.w3.org/2000/svg" width="36.047" height="27.035" viewBox="0 0 36.047 27.035">
    <path fill="#4d4d4d" d="M35.2 71.885h-4.21l-1.172-2.929A7.845 7.845 0 0 0 22.5 64h-8.944a7.848 7.848 0 0 0-7.321 4.956l-1.172 2.929H.849a.845.845 0 0 0-.82 1.05l.422 1.69a.844.844 0 0 0 .82.64h1.413a4.474 4.474 0 0 0-1.554 3.379v3.379a4.469 4.469 0 0 0 1.126 2.952v3.807a2.253 2.253 0 0 0 2.253 2.253h2.253a2.253 2.253 0 0 0 2.253-2.253V86.53h18.024v2.253a2.253 2.253 0 0 0 2.253 2.253h2.253a2.253 2.253 0 0 0 2.255-2.254v-3.806a4.466 4.466 0 0 0 1.126-2.952v-3.38a4.476 4.476 0 0 0-1.554-3.379h1.413a.844.844 0 0 0 .82-.64l.422-1.69a.845.845 0 0 0-.827-1.05zM10.418 70.63a3.38 3.38 0 0 1 3.138-2.124H22.5a3.38 3.38 0 0 1 3.138 2.124l1.4 3.508H9.015zM6.762 82.01a2.246 2.246 0 1 1 0-4.492c1.352 0 3.379 2.021 3.379 3.369S8.114 82.01 6.762 82.01zm22.529 0c-1.352 0-3.379.225-3.379-1.123s2.028-3.369 3.379-3.369a2.246 2.246 0 1 1 0 4.492z" transform="translate(-.004 -64)"/>
</svg>
