<svg xmlns="http://www.w3.org/2000/svg" width="45.059" height="31.541" viewBox="0 0 45.059 31.541">
    <path fill="#15246a" d="M42.806 32H2.253A2.253 2.253 0 0 0 0 34.253v27.035a2.253 2.253 0 0 0 2.253 2.253h40.553a2.253 2.253 0 0 0 2.253-2.253V34.253A2.253 2.253 0 0 0 42.806 32zM12.391 52.831v1.135a.563.563 0 0 1-.563.563H10.7a.563.563 0 0 1-.563-.563v-1.147a4.031 4.031 0 0 1-2.209-.8.564.564 0 0 1-.04-.855l.827-.789a.578.578 0 0 1 .713-.051 1.7 1.7 0 0 0 .9.262h1.979a.885.885 0 0 0 .831-.929.919.919 0 0 0-.617-.9l-3.168-.95a3.186 3.186 0 0 1-2.223-3.055 3.135 3.135 0 0 1 3-3.173v-1.13a.563.563 0 0 1 .563-.563h1.126a.563.563 0 0 1 .563.563V41.6a4.026 4.026 0 0 1 2.209.8.564.564 0 0 1 .04.855l-.827.789a.578.578 0 0 1-.713.051 1.689 1.689 0 0 0-.9-.262h-1.974a.885.885 0 0 0-.831.929.919.919 0 0 0 .617.9l3.168.95a3.186 3.186 0 0 1 2.229 3.046 3.135 3.135 0 0 1-3 3.173zm16.9-1.118a.563.563 0 0 1-.563.563H20.84a.563.563 0 0 1-.563-.563v-1.126a.563.563 0 0 1 .563-.563h7.885a.563.563 0 0 1 .563.563zm11.265 0a.563.563 0 0 1-.563.563h-5.636a.563.563 0 0 1-.563-.563v-1.126a.563.563 0 0 1 .563-.563h5.633a.563.563 0 0 1 .563.563zm0-6.759a.563.563 0 0 1-.563.563H20.84a.563.563 0 0 1-.563-.563v-1.126a.563.563 0 0 1 .563-.563h19.15a.563.563 0 0 1 .563.563z" transform="translate(0 -32)"/>
</svg>
