<svg xmlns="http://www.w3.org/2000/svg" width="45.059" height="36.047" viewBox="0 0 45.059 36.047">
    <path fill="#15246a" d="M35.057 15.907L20.14.99A3.379 3.379 0 0 0 17.75 0H3.379A3.379 3.379 0 0 0 0 3.379V17.75a3.379 3.379 0 0 0 .99 2.39l14.917 14.917a3.379 3.379 0 0 0 4.779 0l14.371-14.37a3.379 3.379 0 0 0 0-4.78zM7.885 11.265a3.379 3.379 0 1 1 3.379-3.379 3.379 3.379 0 0 1-3.379 3.379zm36.184 9.422L29.7 35.057a3.379 3.379 0 0 1-4.779 0l-.025-.025 12.252-12.254a6.337 6.337 0 0 0 0-8.961L23.332 0h3.43a3.379 3.379 0 0 1 2.39.99l14.917 14.917a3.379 3.379 0 0 1 0 4.78z"/>
</svg>
