<svg xmlns="http://www.w3.org/2000/svg" width="36.049" height="36.051" viewBox="0 0 36.049 36.051">
    <path fill="#15246a" d="M35.233 27.859l-8.244-8.244a5.227 5.227 0 0 0-6.013-.979l-7.505-7.505V6.759L4.459 0-.046 4.506l6.759 9.012h4.372l7.505 7.505a5.239 5.239 0 0 0 .979 6.013l8.244 8.244a2.618 2.618 0 0 0 3.71 0l3.71-3.71a2.63 2.63 0 0 0 0-3.71zM23.307 15.841a7.407 7.407 0 0 1 5.273 2.183l1.366 1.366a9.966 9.966 0 0 0 3.084-2.077 10.125 10.125 0 0 0 2.67-9.625.843.843 0 0 0-1.417-.388l-5.238 5.238-4.78-.8-.8-4.78 5.238-5.238A.85.85 0 0 0 28.305.3a10.142 10.142 0 0 0-9.617 2.668 9.977 9.977 0 0 0-2.9 7.294l5.78 5.78a7.67 7.67 0 0 1 1.739-.2zm-7.315 5.773L12 17.622 1.27 28.359a4.505 4.505 0 1 0 6.372 6.372l8.7-8.7a7.561 7.561 0 0 1-.352-4.414zM4.459 33.231a1.69 1.69 0 1 1 1.69-1.69 1.695 1.695 0 0 1-1.69 1.69z" transform="translate(.05)"/>
</svg>
